<svg xmlns="http://www.w3.org/2000/svg" viewBox="0 0 500 500"><g id="freepik--background-simple--inject-17"><path d="M272,139.05c-45.71,49.78-203-25-194.37,92.81C84.71,328,196.38,330.3,254,284.24c58.61-46.81,173.17,3.71,161.7-113.57-3.52-35.88-23.63-80.88-60.64-93.1C296.19,58.11,299.9,108.7,272,139.05Z" style="fill:#407BFF"></path><path d="M272,139.05c-45.71,49.78-203-25-194.37,92.81C84.71,328,196.38,330.3,254,284.24c58.61-46.81,173.17,3.71,161.7-113.57-3.52-35.88-23.63-80.88-60.64-93.1C296.19,58.11,299.9,108.7,272,139.05Z" style="fill:#fff;opacity:0.9"></path></g><g id="freepik--Shadow--inject-17"><ellipse id="freepik--path--inject-17" cx="250" cy="416.24" rx="193.89" ry="11.32" style="fill:#f5f5f5"></ellipse></g><g id="freepik--cloud-2--inject-17"><path d="M385.72,230.73l-1,0a46.51,46.51,0,0,0-79.7-.53,17.35,17.35,0,0,0-27.75,13.91c0,.55,0,1.1.08,1.64A27.63,27.63,0,0,0,278.87,301H385.72a35.13,35.13,0,1,0,0-70.25Z" style="fill:#407BFF"></path><path d="M385.72,230.73l-1,0a46.51,46.51,0,0,0-79.7-.53,17.35,17.35,0,0,0-27.75,13.91c0,.55,0,1.1.08,1.64A27.63,27.63,0,0,0,278.87,301H385.72a35.13,35.13,0,1,0,0-70.25Z" style="opacity:0.5"></path></g><g id="freepik--cloud-1--inject-17"><path d="M160.37,214.6l-.48-.88c2.07-1.14,4.22-2.19,6.39-3.13l.4.92C164.54,212.44,162.41,213.48,160.37,214.6Z" style="fill:#407BFF"></path><path d="M143.27,227.49l-.71-.7a75.35,75.35,0,0,1,11.92-9.8l.55.84A74.74,74.74,0,0,0,143.27,227.49Z" style="fill:#407BFF"></path><path d="M133,242.85c.5,0,1,0,1.51,0a71.28,71.28,0,0,1,122.14-.81,26.59,26.59,0,0,1,42.53,21.31c0,.85-.05,1.68-.13,2.51a42.34,42.34,0,0,1-2.31,84.61H133a53.83,53.83,0,1,1,0-107.66Z" style="fill:#407BFF"></path><path d="M274.69,202.1l17,97.43a5.87,5.87,0,0,1-4.77,6.78l-61,10.64a5.85,5.85,0,0,1-6.78-4.77l-17-97.43Z" style="opacity:0.2"></path><path d="M301.43,287.36,278.71,198.1l-22.63-7.3L204.18,204a4.31,4.31,0,0,0-3.12,5.24l24.78,97.35a4.32,4.32,0,0,0,5.24,3.12l67.23-17.12A4.31,4.31,0,0,0,301.43,287.36Z" style="fill:#fff"></path><path d="M230,310.86a5.33,5.33,0,0,1-5.16-4L200.08,209.5a5.32,5.32,0,0,1,3.85-6.47l51.9-13.21a1,1,0,0,1,.56,0l22.63,7.3a1,1,0,0,1,.67.72l22.72,89.25a5.34,5.34,0,0,1-3.85,6.47l-67.23,17.11A5.42,5.42,0,0,1,230,310.86Zm26-119L204.42,205a3.3,3.3,0,0,0-2.38,4l24.78,97.35a3.24,3.24,0,0,0,1.51,2,3.27,3.27,0,0,0,2.5.36l67.23-17.12a3.24,3.24,0,0,0,2-1.51,3.27,3.27,0,0,0,.36-2.5l-22.58-88.72Z" style="fill:#407BFF"></path><path d="M278.71,198.1l-22.63-7.3,11.29,11.84a4.31,4.31,0,0,0,6,.24Z" style="fill:#e0e0e0"></path><path d="M270.49,205a5.31,5.31,0,0,1-3.85-1.66l-11.29-11.85a1,1,0,0,1,1-1.65l22.63,7.3a1,1,0,0,1,.68.76,1,1,0,0,1-.32,1L274,203.63A5.28,5.28,0,0,1,270.49,205Zm-10.94-12,8.55,9a3.28,3.28,0,0,0,4.59.18l4-3.61Z" style="fill:#407BFF"></path><path d="M253.25,267.84l10.69-10.42,1.18,4.64a13.25,13.25,0,0,0-8.61-25l-1.23-4.84a18.24,18.24,0,0,1,11.08,34.69l1.26,4.94Z" style="fill:#407BFF"></path><path d="M251,235.66l-10.68,10.43-1.18-4.64a13.25,13.25,0,0,0,8.61,25l1.23,4.83a18.24,18.24,0,0,1-11.09-34.68l-1.25-4.95Z" style="fill:#407BFF"></path></g></svg>